# xmcd
#
# Track frame offsets: 
#        150
#        24094
#        44298
#        65183
#        89603
#        109597
#        119505
#        147346
#        164217
#        202605
#        224904
#
# Disc length: 3193 seconds
#
# Revision: 0
# Processed by: cddbd v1.5.2PL0 Copyright (c) Steve Scherf et al.
# Submitted via: ExactAudioCopy v0.95a3
#
DISCID=a80c770b
DTITLE=Zola Moon - Wildcats Under My Skin
DYEAR=2007
DGENRE=Blues
TTITLE0=Big City Blues
TTITLE1=Just the Kinda Girl
TTITLE2=Paycheck Away
TTITLE3=Boat Man
TTITLE4=Drive-By
TTITLE5=Rag Doll
TTITLE6=Hot Texas Sun
TTITLE7=The Human Brain
TTITLE8=Tequila Dreams
TTITLE9=No Laughing Matter
TTITLE10=Rag Doll Redux
EXTD=
EXTT0=
EXTT1=
EXTT2=
EXTT3=
EXTT4=
EXTT5=
EXTT6=
EXTT7=
EXTT8=
EXTT9=
EXTT10=
PLAYORDER=
